<svg width="1880" height="735" xmlns="http://www.w3.org/2000/svg" xmlns:xlink="http://www.w3.org/1999/xlink" xml:space="preserve" overflow="hidden"><defs><clipPath id="clip0"><rect x="2385" y="1216" width="1880" height="735"/></clipPath><clipPath id="clip1"><rect x="2886" y="1215" width="1379" height="344"/></clipPath><clipPath id="clip2"><rect x="2886" y="1215" width="1379" height="344"/></clipPath><clipPath id="clip3"><rect x="2873" y="1558" width="589" height="343"/></clipPath><clipPath id="clip4"><rect x="2873" y="1558" width="589" height="343"/></clipPath><clipPath id="clip5"><rect x="1801" y="256" width="2403" height="2606"/></clipPath><clipPath id="clip6"><rect x="3567" y="1565" width="194" height="334"/></clipPath><clipPath id="clip7"><rect x="3567" y="1565" width="194" height="334"/></clipPath><clipPath id="clip8"><rect x="1392" y="621" width="2401" height="2545"/></clipPath><clipPath id="clip9"><rect x="3498" y="1544" width="83" height="350"/></clipPath><clipPath id="clip10"><rect x="3498" y="1544" width="83" height="350"/></clipPath><clipPath id="clip11"><rect x="1678" y="570" width="2386" height="2660"/></clipPath><clipPath id="clip12"><rect x="3889" y="1711" width="118" height="157"/></clipPath><clipPath id="clip13"><rect x="3889" y="1711" width="118" height="157"/></clipPath><clipPath id="clip14"><rect x="2997" y="268" width="2413" height="2606"/></clipPath><clipPath id="clip15"><rect x="3737" y="1556" width="342" height="343"/></clipPath><clipPath id="clip16"><rect x="3737" y="1556" width="342" height="343"/></clipPath><clipPath id="clip17"><rect x="1708" y="586" width="2403" height="2614"/></clipPath><clipPath id="clip18"><rect x="4019" y="1558" width="216" height="343"/></clipPath><clipPath id="clip19"><rect x="4019" y="1558" width="216" height="343"/></clipPath><clipPath id="clip20"><rect x="2636" y="592" width="2406" height="2606"/></clipPath><clipPath id="clip21"><rect x="2384" y="1219" width="460" height="675"/></clipPath><clipPath id="clip22"><rect x="2384" y="1219" width="460" height="675"/></clipPath></defs><g clip-path="url(#clip0)" transform="translate(-2385 -1216)"><g clip-path="url(#clip1)"><g clip-path="url(#clip2)"><path d="M1695.11 1597.44 1695.11 1304.02 1902.67 1304.02 1902.67 1369.4 1776.64 1369.4 1776.64 1419.81 1885.73 1419.81 1885.73 1476.13 1776.64 1476.13 1776.64 1531.67 1906.61 1531.67 1906.61 1597.44 1695.11 1597.44ZM2493.04 1597.44 2493.04 1304.02 2407.58 1304.02 2407.58 1407.6C2351.65 1426.51 2306.75 1426.9 2303.21 1426.9L2303.21 1304.02 2217.75 1304.02 2217.75 1597.44 2303.21 1597.44 2303.21 1492.68 2305.57 1492.68C2304.39 1493.07 2360.32 1490.71 2407.19 1472.98L2407.19 1597.44 2493.04 1597.44ZM1259.12 1597.44 1259.12 1496.22 1355.62 1496.22 1355.62 1434.39 1259.12 1434.39 1259.12 1376.49 1380.43 1376.49 1380.43 1304.81 1173.66 1304.81 1173.66 1597.44 1259.12 1597.44ZM1697.08 1266.61 1697.08 1200.84 1567.11 1200.84 1567.11 1145.3 1676.21 1145.3 1676.21 1088.98 1567.11 1088.98 1567.11 1038.57 1698.66 1038.57 1698.66 973.193 1485.59 973.193 1485.59 1266.61 1697.08 1266.61ZM2165.36 1266.21 2165.36 1194.53 2048.79 1194.53 2048.79 972.799 1963.32 972.799 1963.32 1266.21 2165.36 1266.21ZM1933.39 1266.21 1933.39 1194.53 1816.81 1194.53 1816.81 972.799 1731.35 972.799 1731.35 1266.21 1933.39 1266.21ZM2337.08 1037.39C2383.95 1037 2416.24 1073.23 2415.46 1119.7 2415.46 1136.24 2411.91 1150.82 2405.22 1163.03 2378.83 1214.62 2294.94 1214.62 2268.95 1163.03 2262.25 1150.82 2259.1 1135.85 2259.1 1119.7 2258.31 1073.23 2290.21 1037 2337.08 1037.39M2337.08 1274.09C2427.27 1275.27 2500.53 1213.04 2498.56 1119.7 2498.56 1088.98 2491.47 1061.41 2477.68 1038.57 2420.97 941.291 2252.8 940.897 2196.08 1038.57 2182.69 1061.81 2175.6 1088.98 2175.6 1119.7 2174.42 1213.04 2246.89 1275.27 2337.08 1274.09M1448.96 1266.21 1448.96 972.799 1363.49 972.799 1363.49 1076.38C1307.57 1095.29 1262.67 1095.68 1259.12 1095.68L1259.12 972.799 1173.66 972.799 1173.66 1266.21 1259.12 1266.21 1259.12 1161.06 1261.49 1161.06C1260.31 1161.45 1316.23 1159.09 1363.1 1141.36L1363.1 1265.82 1448.96 1265.82ZM2060.21 1602.95C2121.25 1604.13 2190.18 1573.41 2192.15 1506.85 2192.93 1484.4 2187.81 1466.68 2177.18 1454.08 2166.15 1441.48 2152.76 1432.42 2137.4 1427.3 2116.92 1419.42 2066.9 1411.54 2044.85 1406.03 2037.76 1404.06 2031.46 1401.3 2026.73 1397.36 2016.88 1390.28 2016.49 1374.13 2024.76 1365.46 2033.03 1356.4 2047.21 1354.04 2060.21 1354.44 2083.05 1355.22 2102.74 1366.64 2107.47 1389.09L2168.91 1356.4C2158.27 1333.17 2139.37 1317.02 2115.35 1306.39 2064.54 1285.12 1987.35 1289.45 1953.08 1336.71 1932.21 1362.71 1929.45 1415.88 1951.11 1439.9 1962.14 1452.5 1975.14 1461.56 1990.1 1466.68 2009.79 1474.95 2060.21 1482.83 2083.05 1489.13 2096.44 1493.46 2111.01 1500.16 2110.23 1515.91 2108.65 1538.76 2078.72 1544.66 2058.63 1543.48 2036.97 1542.69 2016.88 1536 2004.28 1519.85 1999.55 1513.94 1996.4 1506.85 1994.83 1499.37L1927.87 1534.82C1949.93 1583.65 2007.04 1603.35 2060.21 1602.95M1494.25 1439.11 1531.67 1439.11C1539.54 1439.11 1547.03 1437.54 1553.72 1434.39 1574.99 1425.33 1584.44 1401.3 1570.66 1382 1561.99 1370.19 1546.63 1364.28 1531.67 1364.28L1494.25 1364.28 1494.25 1439.11ZM1659.27 1601.38C1590.35 1602.16 1535.6 1558.05 1510.79 1495.43L1494.25 1495.43 1494.25 1598.23 1408.79 1598.23 1408.79 1304.81 1542.3 1304.81C1584.05 1304.81 1624.61 1317.81 1647.46 1350.89 1663.21 1373.73 1667.15 1409.18 1655.33 1434.78 1644.7 1457.62 1621.86 1471.41 1595.08 1480.86 1595.08 1480.86 1607.28 1510.4 1635.64 1522.21 1643.12 1525.36 1651.79 1527.33 1660.85 1527.73L1660.85 1601.77C1660.06 1601.38 1659.67 1601.38 1659.27 1601.38" fill="#393332" transform="matrix(1 0 0 1.01755 1730.79 246.575)"/><path d="M1025.57 1028.33C1034.24 1042.9 1033.84 1060.23 1025.97 1074.02 997.611 1117.73 985.008 1170.12 989.734 1222.1L989.734 1222.1C999.58 1367.83 918.054 1520.64 770.362 1606.5 622.67 1692.36 449.378 1687.63 327.68 1606.89L327.68 1606.89C285.144 1576.96 233.157 1561.99 181.169 1564.75L181.169 1564.75C165.415 1564.36 150.055 1556.08 141.391 1541.51 132.726 1526.94 133.12 1509.61 140.997 1495.83 169.354 1452.11 181.957 1399.73 177.231 1347.74L177.231 1347.74C167.384 1202.02 248.911 1049.2 396.603 963.347 544.295 877.488 717.587 882.214 839.285 962.953L839.285 962.953C881.821 992.885 933.808 1007.85 985.796 1004.7 1001.94 1005.09 1017.3 1013.36 1025.57 1028.33" fill="#82BF25" transform="matrix(1 0 0 1.01755 1730.79 246.575)"/></g></g><g clip-path="url(#clip3)"><g clip-path="url(#clip4)"><g clip-path="url(#clip5)"><path d="M1586.15 1494.75 1586.15 1220.2 1780.36 1220.2 1780.36 1281.37 1662.43 1281.37 1662.43 1328.55 1764.51 1328.55 1764.51 1381.24 1662.43 1381.24 1662.43 1433.21 1784.05 1433.21 1784.05 1494.75 1586.15 1494.75ZM2332.79 1494.75 2332.79 1220.2 2252.81 1220.2 2252.81 1317.12C2200.48 1334.81 2158.47 1335.18 2155.15 1335.18L2155.15 1220.2 2075.18 1220.2 2075.18 1494.75 2155.15 1494.75 2155.15 1396.72 2157.37 1396.72C2156.26 1397.09 2208.59 1394.88 2252.45 1378.3L2252.45 1494.75 2332.79 1494.75ZM1178.19 1494.75 1178.19 1400.04 1268.48 1400.04 1268.48 1342.18 1178.19 1342.18 1178.19 1288.01 1291.69 1288.01 1291.69 1220.93 1098.22 1220.93 1098.22 1494.75 1178.19 1494.75ZM1587.99 1185.19 1587.99 1123.64 1466.38 1123.64 1466.38 1071.68 1568.46 1071.68 1568.46 1018.98 1466.38 1018.98 1466.38 971.81 1589.46 971.81 1589.46 910.634 1390.09 910.634 1390.09 1185.19 1587.99 1185.19ZM2026.17 1184.82 2026.17 1117.75 1917.09 1117.75 1917.09 910.266 1837.11 910.266 1837.11 1184.82 2026.17 1184.82ZM1809.11 1184.82 1809.11 1117.75 1700.02 1117.75 1700.02 910.266 1620.05 910.266 1620.05 1184.82 1809.11 1184.82ZM2186.85 970.704C2230.7 970.336 2260.92 1004.24 2260.19 1047.73 2260.19 1063.2 2256.87 1076.84 2250.6 1088.26 2225.91 1136.54 2147.42 1136.54 2123.09 1088.26 2116.83 1076.84 2113.88 1062.84 2113.88 1047.73 2113.14 1004.24 2142.99 970.336 2186.85 970.704M2186.85 1192.19C2271.24 1193.3 2339.79 1135.07 2337.95 1047.73 2337.95 1018.98 2331.31 993.184 2318.41 971.81 2265.34 880.783 2107.98 880.415 2054.92 971.81 2042.39 993.553 2035.75 1018.98 2035.75 1047.73 2034.65 1135.07 2102.46 1193.3 2186.85 1192.19M1355.82 1184.82 1355.82 910.266 1275.85 910.266 1275.85 1007.19C1223.51 1024.88 1181.5 1025.25 1178.19 1025.25L1178.19 910.266 1098.22 910.266 1098.22 1184.82 1178.19 1184.82 1178.19 1086.42 1180.4 1086.42C1179.29 1086.79 1231.62 1084.58 1275.48 1068L1275.48 1184.45 1355.82 1184.45ZM1927.77 1499.91C1984.89 1501.02 2049.39 1472.27 2051.23 1409.99 2051.97 1388.98 2047.18 1372.4 2037.23 1360.61 2026.91 1348.81 2014.38 1340.34 2000 1335.55 1980.84 1328.18 1934.04 1320.81 1913.4 1315.65 1906.77 1313.8 1900.87 1311.22 1896.45 1307.54 1887.23 1300.91 1886.87 1285.8 1894.61 1277.69 1902.34 1269.21 1915.61 1267 1927.77 1267.37 1949.15 1268.11 1967.57 1278.79 1972 1299.8L2029.49 1269.21C2019.54 1247.47 2001.85 1232.36 1979.37 1222.41 1931.83 1202.51 1859.59 1206.56 1827.53 1250.79 1808 1275.11 1805.42 1324.86 1825.69 1347.34 1836.01 1359.13 1848.17 1367.61 1862.17 1372.4 1880.6 1380.14 1927.77 1387.51 1949.15 1393.41 1961.68 1397.46 1975.31 1403.73 1974.58 1418.47 1973.1 1439.84 1945.09 1445.37 1926.3 1444.26 1906.03 1443.53 1887.23 1437.26 1875.44 1422.15 1871.02 1416.62 1868.07 1409.99 1866.6 1402.99L1803.95 1436.16C1824.58 1481.85 1878.02 1500.28 1927.77 1499.91M1398.2 1346.6 1433.21 1346.6C1440.58 1346.6 1447.58 1345.13 1453.85 1342.18 1473.75 1333.7 1482.59 1311.22 1469.69 1293.17 1461.58 1282.11 1447.21 1276.58 1433.21 1276.58L1398.2 1276.58 1398.2 1346.6ZM1552.61 1498.44C1488.12 1499.17 1436.89 1457.9 1413.68 1399.3L1398.2 1399.3 1398.2 1495.49 1318.23 1495.49 1318.23 1220.93 1443.16 1220.93C1482.22 1220.93 1520.18 1233.1 1541.55 1264.05 1556.3 1285.43 1559.98 1318.6 1548.93 1342.55 1538.98 1363.92 1517.6 1376.82 1492.54 1385.67 1492.54 1385.67 1503.96 1413.31 1530.5 1424.36 1537.5 1427.31 1545.61 1429.15 1554.08 1429.52L1554.08 1498.81C1553.35 1498.44 1552.98 1498.44 1552.61 1498.44" fill="#393332" transform="matrix(1 0 0 1.08428 1801.04 256.341)"/><path d="M959.648 962.228C967.756 975.864 967.387 992.079 960.017 1004.98 933.483 1045.88 921.69 1094.9 926.112 1143.54L926.112 1143.54C935.325 1279.9 859.04 1422.89 720.842 1503.23 582.644 1583.57 420.491 1579.14 306.616 1503.6L306.616 1503.6C266.815 1475.59 218.169 1461.58 169.523 1464.16L169.523 1464.16C154.782 1463.8 140.409 1456.06 132.302 1442.42 124.194 1428.79 124.563 1412.57 131.933 1399.67 158.467 1358.76 170.26 1309.75 165.838 1261.1L165.838 1261.1C156.625 1124.75 232.91 981.76 371.108 901.421 509.306 821.082 671.459 825.504 785.334 901.052L785.334 901.052C825.135 929.06 873.781 943.065 922.427 940.116 937.537 940.485 951.909 948.224 959.648 962.228" fill="#82BF25" transform="matrix(1 0 0 1.08428 1801.04 256.341)"/></g></g></g><g clip-path="url(#clip6)"><g clip-path="url(#clip7)"><g clip-path="url(#clip8)"><path d="M1584.36 1493.07 1584.36 1218.82 1778.35 1218.82 1778.35 1279.93 1660.56 1279.93 1660.56 1327.05 1762.53 1327.05 1762.53 1379.69 1660.56 1379.69 1660.56 1431.59 1782.04 1431.59 1782.04 1493.07 1584.36 1493.07ZM2330.16 1493.07 2330.16 1218.82 2250.28 1218.82 2250.28 1315.64C2198 1333.31 2156.04 1333.67 2152.73 1333.67L2152.73 1218.82 2072.84 1218.82 2072.84 1493.07 2152.73 1493.07 2152.73 1395.15 2154.93 1395.15C2153.83 1395.52 2206.1 1393.31 2249.91 1376.74L2249.91 1493.07 2330.16 1493.07ZM1176.86 1493.07 1176.86 1398.46 1267.05 1398.46 1267.05 1340.67 1176.86 1340.67 1176.86 1286.56 1290.24 1286.56 1290.24 1219.56 1096.98 1219.56 1096.98 1493.07 1176.86 1493.07ZM1586.2 1183.85 1586.2 1122.38 1464.72 1122.38 1464.72 1070.47 1566.69 1070.47 1566.69 1017.83 1464.72 1017.83 1464.72 970.714 1587.67 970.714 1587.67 909.607 1388.52 909.607 1388.52 1183.85 1586.2 1183.85ZM2023.89 1183.48 2023.89 1116.49 1914.92 1116.49 1914.92 909.239 1835.04 909.239 1835.04 1183.48 2023.89 1183.48ZM1807.07 1183.48 1807.07 1116.49 1698.11 1116.49 1698.11 909.239 1618.23 909.239 1618.23 1183.48 1807.07 1183.48ZM2184.38 969.61C2228.19 969.242 2258.37 1003.11 2257.64 1046.55 2257.64 1062.01 2254.32 1075.63 2248.07 1087.04 2223.4 1135.26 2145 1135.26 2120.7 1087.04 2114.44 1075.63 2111.5 1061.64 2111.5 1046.55 2110.76 1003.11 2140.58 969.242 2184.38 969.61M2184.38 1190.85C2268.68 1191.95 2337.15 1133.79 2335.31 1046.55 2335.31 1017.83 2328.68 992.065 2315.8 970.714 2262.79 879.79 2105.61 879.422 2052.6 970.714 2040.08 992.433 2033.46 1017.83 2033.46 1046.55 2032.35 1133.79 2100.09 1191.95 2184.38 1190.85M1354.29 1183.48 1354.29 909.239 1274.41 909.239 1274.41 1006.05C1222.14 1023.72 1180.17 1024.09 1176.86 1024.09L1176.86 909.239 1096.98 909.239 1096.98 1183.48 1176.86 1183.48 1176.86 1085.2 1179.07 1085.2C1177.96 1085.57 1230.23 1083.36 1274.04 1066.79L1274.04 1183.12 1354.29 1183.12ZM1925.6 1498.22C1982.66 1499.32 2047.08 1470.61 2048.92 1408.4 2049.65 1387.42 2044.87 1370.85 2034.93 1359.07 2024.62 1347.29 2012.11 1338.83 1997.75 1334.04 1978.61 1326.68 1931.86 1319.32 1911.24 1314.16 1904.62 1312.32 1898.73 1309.75 1894.31 1306.07 1885.11 1299.44 1884.74 1284.35 1892.47 1276.25 1900.2 1267.78 1913.45 1265.57 1925.6 1265.94 1946.95 1266.68 1965.36 1277.35 1969.77 1298.33L2027.2 1267.78C2017.26 1246.06 1999.59 1230.97 1977.14 1221.03 1929.65 1201.15 1857.5 1205.2 1825.47 1249.38 1805.96 1273.67 1803.39 1323.37 1823.63 1345.82 1833.94 1357.6 1846.09 1366.07 1860.08 1370.85 1878.48 1378.58 1925.6 1385.95 1946.95 1391.84 1959.47 1395.88 1973.09 1402.14 1972.35 1416.87 1970.88 1438.22 1942.9 1443.74 1924.13 1442.64 1903.88 1441.9 1885.11 1435.64 1873.33 1420.55 1868.91 1415.03 1865.97 1408.4 1864.49 1401.41L1801.91 1434.54C1822.53 1480.18 1875.9 1498.59 1925.6 1498.22M1396.62 1345.09 1431.59 1345.09C1438.95 1345.09 1445.95 1343.61 1452.21 1340.67 1472.08 1332.2 1480.92 1309.75 1468.03 1291.71 1459.94 1280.67 1445.58 1275.14 1431.59 1275.14L1396.62 1275.14 1396.62 1345.09ZM1550.86 1496.75C1486.44 1497.48 1435.27 1456.26 1412.08 1397.73L1396.62 1397.73 1396.62 1493.8 1316.74 1493.8 1316.74 1219.56 1441.53 1219.56C1480.55 1219.56 1518.47 1231.71 1539.82 1262.63 1554.54 1283.98 1558.22 1317.11 1547.18 1341.04 1537.24 1362.39 1515.89 1375.27 1490.86 1384.11 1490.86 1384.11 1502.27 1411.71 1528.77 1422.76 1535.77 1425.7 1543.87 1427.54 1552.33 1427.91L1552.33 1497.12C1551.6 1496.75 1551.23 1496.75 1550.86 1496.75" fill="#393332" transform="matrix(1 0 0 1.06011 1392.39 621.012)"/><path d="M958.566 961.143C966.665 974.763 966.297 990.96 958.935 1003.84 932.43 1044.7 920.651 1093.66 925.068 1142.25L925.068 1142.25C934.271 1278.46 858.072 1421.28 720.029 1501.53 581.987 1581.78 420.017 1577.36 306.27 1501.9L306.27 1501.9C266.514 1473.92 217.923 1459.94 169.332 1462.51L169.332 1462.51C154.607 1462.15 140.251 1454.41 132.153 1440.79 124.054 1427.17 124.422 1410.98 131.784 1398.09 158.289 1357.23 170.068 1308.27 165.651 1259.68L165.651 1259.68C156.448 1123.48 232.647 980.653 370.69 900.405 508.732 820.156 670.702 824.573 784.449 900.036L784.449 900.036C824.205 928.013 872.796 942.001 921.387 939.057 936.48 939.425 950.836 947.155 958.566 961.143" fill="#82BF25" transform="matrix(1 0 0 1.06011 1392.39 621.012)"/></g></g></g><g clip-path="url(#clip9)"><g clip-path="url(#clip10)"><g clip-path="url(#clip11)"><path d="M1574.43 1483.71 1574.43 1211.18 1767.21 1211.18 1767.21 1271.91 1650.15 1271.91 1650.15 1318.73 1751.48 1318.73 1751.48 1371.04 1650.15 1371.04 1650.15 1422.62 1770.87 1422.62 1770.87 1483.71 1574.43 1483.71ZM2315.55 1483.71 2315.55 1211.18 2236.17 1211.18 2236.17 1307.39C2184.23 1324.95 2142.52 1325.31 2139.23 1325.31L2139.23 1211.18 2059.85 1211.18 2059.85 1483.71 2139.23 1483.71 2139.23 1386.4 2141.43 1386.4C2140.33 1386.77 2192.27 1384.57 2235.8 1368.11L2235.8 1483.71 2315.55 1483.71ZM1169.48 1483.71 1169.48 1389.7 1259.1 1389.7 1259.1 1332.26 1169.48 1332.26 1169.48 1278.49 1282.15 1278.49 1282.15 1211.91 1090.1 1211.91 1090.1 1483.71 1169.48 1483.71ZM1576.26 1176.43 1576.26 1115.34 1455.54 1115.34 1455.54 1063.76 1556.87 1063.76 1556.87 1011.45 1455.54 1011.45 1455.54 964.629 1577.72 964.629 1577.72 903.906 1379.82 903.906 1379.82 1176.43 1576.26 1176.43ZM2011.2 1176.07 2011.2 1109.49 1902.92 1109.49 1902.92 903.54 1823.54 903.54 1823.54 1176.07 2011.2 1176.07ZM1795.74 1176.07 1795.74 1109.49 1687.46 1109.49 1687.46 903.54 1608.08 903.54 1608.08 1176.07 1795.74 1176.07ZM2170.69 963.532C2214.22 963.166 2244.22 996.82 2243.49 1039.99 2243.49 1055.35 2240.19 1068.88 2233.98 1080.22 2209.47 1128.14 2131.55 1128.14 2107.41 1080.22 2101.19 1068.88 2098.26 1054.98 2098.26 1039.99 2097.53 996.82 2127.16 963.166 2170.69 963.532M2170.69 1183.38C2254.46 1184.48 2322.5 1126.68 2320.67 1039.99 2320.67 1011.45 2314.09 985.846 2301.28 964.629 2248.61 874.275 2092.41 873.91 2039.73 964.629 2027.29 986.212 2020.71 1011.45 2020.71 1039.99 2019.61 1126.68 2086.92 1184.48 2170.69 1183.38M1345.8 1176.07 1345.8 903.54 1266.42 903.54 1266.42 999.747C1214.47 1017.31 1172.77 1017.67 1169.48 1017.67L1169.48 903.54 1090.1 903.54 1090.1 1176.07 1169.48 1176.07 1169.48 1078.39 1171.68 1078.39C1170.58 1078.76 1222.52 1076.57 1266.05 1060.1L1266.05 1175.7 1345.8 1175.7ZM1913.53 1488.83C1970.23 1489.93 2034.24 1461.39 2036.07 1399.57 2036.81 1378.72 2032.05 1362.26 2022.17 1350.55 2011.93 1338.85 1999.49 1330.44 1985.23 1325.68 1966.21 1318.36 1919.75 1311.05 1899.26 1305.93 1892.68 1304.1 1886.83 1301.54 1882.44 1297.88 1873.29 1291.29 1872.92 1276.3 1880.61 1268.25 1888.29 1259.83 1901.46 1257.64 1913.53 1258.01 1934.75 1258.74 1953.04 1269.35 1957.43 1290.2L2014.49 1259.83C2004.61 1238.25 1987.06 1223.25 1964.74 1213.38 1917.55 1193.62 1845.86 1197.65 1814.03 1241.54 1794.64 1265.69 1792.08 1315.07 1812.2 1337.39 1822.44 1349.09 1834.52 1357.5 1848.42 1362.26 1866.71 1369.94 1913.53 1377.26 1934.75 1383.11 1947.18 1387.14 1960.72 1393.35 1959.99 1407.99 1958.52 1429.2 1930.72 1434.69 1912.07 1433.59 1891.95 1432.86 1873.29 1426.64 1861.58 1411.64 1857.2 1406.16 1854.27 1399.57 1852.81 1392.62L1790.62 1425.54C1811.1 1470.9 1864.15 1489.19 1913.53 1488.83M1387.87 1336.65 1422.62 1336.65C1429.93 1336.65 1436.88 1335.19 1443.1 1332.26 1462.86 1323.85 1471.64 1301.54 1458.83 1283.61 1450.79 1272.64 1436.52 1267.15 1422.62 1267.15L1387.87 1267.15 1387.87 1336.65ZM1541.14 1487.37C1477.12 1488.1 1426.28 1447.13 1403.23 1388.96L1387.87 1388.96 1387.87 1484.44 1308.49 1484.44 1308.49 1211.91 1432.49 1211.91C1471.27 1211.91 1508.95 1223.99 1530.16 1254.71 1544.8 1275.93 1548.46 1308.85 1537.48 1332.63 1527.6 1353.85 1506.39 1366.65 1481.51 1375.43 1481.51 1375.43 1492.85 1402.86 1519.19 1413.84 1526.14 1416.77 1534.19 1418.59 1542.6 1418.96L1542.6 1487.73C1541.87 1487.37 1541.5 1487.37 1541.14 1487.37" fill="#393332" transform="matrix(1 0 0 1.11471 1678.87 570.778)"/><path d="M952.558 955.119C960.606 968.653 960.24 984.749 952.924 997.552 926.586 1038.16 914.88 1086.81 919.27 1135.09L919.27 1135.09C928.415 1270.44 852.693 1412.38 715.516 1492.12 578.339 1571.87 417.384 1567.48 304.35 1492.49L304.35 1492.49C264.843 1464.69 216.557 1450.79 168.271 1453.35L168.271 1453.35C153.638 1452.98 139.372 1445.3 131.324 1431.76 123.276 1418.23 123.642 1402.13 130.958 1389.33 157.296 1348.73 169.002 1300.07 164.613 1251.79L164.613 1251.79C155.467 1116.44 231.189 974.506 368.366 894.761 505.543 815.015 666.498 819.405 779.532 894.395L779.532 894.395C819.039 922.196 867.325 936.097 915.612 933.17 930.609 933.536 944.876 941.218 952.558 955.119" fill="#82BF25" transform="matrix(1 0 0 1.11471 1678.87 570.778)"/></g></g></g><g clip-path="url(#clip12)"><g clip-path="url(#clip13)"><g clip-path="url(#clip14)"><path d="M1592.31 1500.56 1592.31 1224.94 1787.28 1224.94 1787.28 1286.36 1668.9 1286.36 1668.9 1333.71 1771.37 1333.71 1771.37 1386.62 1668.9 1386.62 1668.9 1438.78 1790.98 1438.78 1790.98 1500.56 1592.31 1500.56ZM2341.86 1500.56 2341.86 1224.94 2261.57 1224.94 2261.57 1322.24C2209.04 1340 2166.86 1340.37 2163.53 1340.37L2163.53 1224.94 2083.25 1224.94 2083.25 1500.56 2163.53 1500.56 2163.53 1402.15 2165.75 1402.15C2164.64 1402.52 2217.18 1400.3 2261.2 1383.66L2261.2 1500.56 2341.86 1500.56ZM1182.77 1500.56 1182.77 1405.48 1273.41 1405.48 1273.41 1347.4 1182.77 1347.4 1182.77 1293.01 1296.71 1293.01 1296.71 1225.68 1102.48 1225.68 1102.48 1500.56 1182.77 1500.56ZM1594.16 1189.8 1594.16 1128.01 1472.08 1128.01 1472.08 1075.85 1574.56 1075.85 1574.56 1022.94 1472.08 1022.94 1472.08 975.588 1595.64 975.588 1595.64 914.175 1395.49 914.175 1395.49 1189.8 1594.16 1189.8ZM2034.05 1189.43 2034.05 1122.09 1924.54 1122.09 1924.54 913.805 1844.26 913.805 1844.26 1189.43 2034.05 1189.43ZM1816.14 1189.43 1816.14 1122.09 1706.63 1122.09 1706.63 913.805 1626.35 913.805 1626.35 1189.43 1816.14 1189.43ZM2195.35 974.478C2239.38 974.108 2269.71 1008.14 2268.97 1051.8 2268.97 1067.34 2265.64 1081.03 2259.35 1092.5 2234.57 1140.96 2155.76 1140.96 2131.35 1092.5 2125.06 1081.03 2122.1 1066.97 2122.1 1051.8 2121.36 1008.14 2151.33 974.108 2195.35 974.478M2195.35 1196.82C2280.07 1197.93 2348.88 1139.48 2347.03 1051.8 2347.03 1022.94 2340.38 997.046 2327.43 975.588 2274.15 884.208 2116.18 883.838 2062.9 975.588 2050.33 997.416 2043.67 1022.94 2043.67 1051.8 2042.56 1139.48 2110.63 1197.93 2195.35 1196.82M1361.09 1189.43 1361.09 913.805 1280.81 913.805 1280.81 1011.1C1228.27 1028.86 1186.1 1029.23 1182.77 1029.23L1182.77 913.805 1102.48 913.805 1102.48 1189.43 1182.77 1189.43 1182.77 1090.65 1184.99 1090.65C1183.88 1091.02 1236.41 1088.8 1280.44 1072.15L1280.44 1189.06 1361.09 1189.06ZM1935.27 1505.74C1992.61 1506.85 2057.35 1478 2059.2 1415.47 2059.94 1394.38 2055.14 1377.74 2045.15 1365.9 2034.79 1354.06 2022.21 1345.55 2007.78 1340.74 1988.54 1333.34 1941.56 1325.94 1920.84 1320.76 1914.18 1318.91 1908.26 1316.32 1903.82 1312.62 1894.57 1305.96 1894.2 1290.8 1901.97 1282.66 1909.74 1274.15 1923.06 1271.93 1935.27 1272.3 1956.73 1273.04 1975.22 1283.77 1979.66 1304.85L2037.38 1274.15C2027.39 1252.32 2009.63 1237.15 1987.06 1227.16 1939.34 1207.18 1866.83 1211.25 1834.64 1255.65 1815.03 1280.07 1812.44 1330.01 1832.79 1352.58 1843.15 1364.42 1855.36 1372.93 1869.41 1377.74 1887.91 1385.51 1935.27 1392.9 1956.73 1398.82 1969.3 1402.89 1982.99 1409.18 1982.25 1423.98 1980.77 1445.44 1952.66 1450.99 1933.79 1449.88 1913.44 1449.14 1894.57 1442.85 1882.73 1427.68 1878.29 1422.13 1875.33 1415.47 1873.85 1408.44L1810.96 1441.74C1831.68 1487.61 1885.32 1506.11 1935.27 1505.74M1403.63 1351.84 1438.78 1351.84C1446.18 1351.84 1453.21 1350.36 1459.5 1347.4 1479.48 1338.89 1488.35 1316.32 1475.41 1298.19 1467.27 1287.1 1452.84 1281.55 1438.78 1281.55L1403.63 1281.55 1403.63 1351.84ZM1558.65 1504.26C1493.9 1505 1442.48 1463.57 1419.17 1404.74L1403.63 1404.74 1403.63 1501.3 1323.35 1501.3 1323.35 1225.68 1448.77 1225.68C1487.98 1225.68 1526.09 1237.89 1547.55 1268.97 1562.35 1290.43 1566.05 1323.72 1554.95 1347.77 1544.96 1369.23 1523.5 1382.18 1498.34 1391.05 1498.34 1391.05 1509.81 1418.8 1536.45 1429.9 1543.48 1432.86 1551.62 1434.71 1560.13 1435.08L1560.13 1504.63C1559.39 1504.26 1559.02 1504.26 1558.65 1504.26" fill="#393332" transform="matrix(-1 1.22465e-16 -1.32267e-16 -1.08004 5409.22 2873.32)"/><path d="M963.379 965.969C971.519 979.658 971.149 995.936 963.749 1008.88 937.112 1049.95 925.273 1099.16 929.713 1147.99L929.713 1147.99C938.962 1284.88 862.38 1428.42 723.644 1509.07 584.909 1589.72 422.126 1585.28 307.808 1509.44L307.808 1509.44C267.852 1481.33 219.017 1467.27 170.182 1469.86L170.182 1469.86C155.384 1469.49 140.955 1461.72 132.816 1448.03 124.677 1434.34 125.047 1418.06 132.446 1405.11 159.083 1364.05 170.922 1314.84 166.483 1266.01L166.483 1266.01C157.234 1129.12 233.816 985.577 372.551 904.925 511.287 824.274 674.07 828.713 788.388 904.556L788.388 904.556C828.343 932.673 877.178 946.731 926.013 943.771 941.182 944.141 955.61 951.911 963.379 965.969" fill="#82BF25" transform="matrix(-1 1.22465e-16 -1.32267e-16 -1.08004 5409.22 2873.32)"/></g></g></g><g clip-path="url(#clip15)"><g clip-path="url(#clip16)"><g clip-path="url(#clip17)"><path d="M1585.67 1494.3 1585.67 1219.83 1779.83 1219.83 1779.83 1280.99 1661.93 1280.99 1661.93 1328.15 1763.99 1328.15 1763.99 1380.83 1661.93 1380.83 1661.93 1432.78 1783.51 1432.78 1783.51 1494.3 1585.67 1494.3ZM2332.09 1494.3 2332.09 1219.83 2252.14 1219.83 2252.14 1316.73C2199.82 1334.41 2157.82 1334.78 2154.51 1334.78L2154.51 1219.83 2074.56 1219.83 2074.56 1494.3 2154.51 1494.3 2154.51 1396.3 2156.72 1396.3C2155.61 1396.67 2207.93 1394.46 2251.77 1377.88L2251.77 1494.3 2332.09 1494.3ZM1177.83 1494.3 1177.83 1399.62 1268.09 1399.62 1268.09 1341.78 1177.83 1341.78 1177.83 1287.62 1291.3 1287.62 1291.3 1220.57 1097.89 1220.57 1097.89 1494.3 1177.83 1494.3ZM1587.51 1184.83 1587.51 1123.31 1465.94 1123.31 1465.94 1071.36 1567.99 1071.36 1567.99 1018.68 1465.94 1018.68 1465.94 971.518 1588.99 971.518 1588.99 910.361 1389.67 910.361 1389.67 1184.83 1587.51 1184.83ZM2025.56 1184.46 2025.56 1117.41 1916.51 1117.41 1916.51 909.992 1836.56 909.992 1836.56 1184.46 2025.56 1184.46ZM1808.56 1184.46 1808.56 1117.41 1699.51 1117.41 1699.51 909.992 1619.57 909.992 1619.57 1184.46 1808.56 1184.46ZM2186.19 970.413C2230.03 970.044 2260.24 1003.94 2259.51 1047.41 2259.51 1062.89 2256.19 1076.52 2249.93 1087.94 2225.24 1136.2 2146.77 1136.2 2122.46 1087.94 2116.19 1076.52 2113.25 1062.52 2113.25 1047.41 2112.51 1003.94 2142.35 970.044 2186.19 970.413M2186.19 1191.83C2270.56 1192.94 2339.09 1134.73 2337.24 1047.41 2337.24 1018.68 2330.61 992.886 2317.72 971.518 2264.67 880.519 2107.35 880.15 2054.3 971.518 2041.77 993.255 2035.14 1018.68 2035.14 1047.41 2034.04 1134.73 2101.82 1192.94 2186.19 1191.83M1355.41 1184.46 1355.41 909.992 1275.46 909.992 1275.46 1006.89C1223.15 1024.57 1181.15 1024.94 1177.83 1024.94L1177.83 909.992 1097.89 909.992 1097.89 1184.46 1177.83 1184.46 1177.83 1086.1 1180.04 1086.1C1178.94 1086.46 1231.25 1084.25 1275.09 1067.68L1275.09 1184.1 1355.41 1184.1ZM1927.19 1499.46C1984.3 1500.57 2048.77 1471.83 2050.61 1409.57 2051.35 1388.57 2046.56 1371.99 2036.61 1360.2 2026.3 1348.41 2013.77 1339.94 1999.4 1335.15 1980.25 1327.78 1933.46 1320.41 1912.83 1315.25 1906.19 1313.41 1900.3 1310.83 1895.88 1307.15 1886.67 1300.52 1886.3 1285.41 1894.04 1277.31 1901.77 1268.83 1915.04 1266.62 1927.19 1266.99 1948.56 1267.73 1966.98 1278.41 1971.4 1299.41L2028.88 1268.83C2018.93 1247.09 2001.25 1231.99 1978.77 1222.04 1931.25 1202.15 1859.04 1206.2 1826.98 1250.41 1807.46 1274.73 1804.88 1324.46 1825.14 1346.94 1835.46 1358.73 1847.62 1367.2 1861.62 1371.99 1880.04 1379.73 1927.19 1387.09 1948.56 1392.99 1961.09 1397.04 1974.72 1403.3 1973.98 1418.04 1972.51 1439.41 1944.51 1444.94 1925.72 1443.83 1905.46 1443.09 1886.67 1436.83 1874.88 1421.72 1870.46 1416.2 1867.51 1409.57 1866.04 1402.57L1803.41 1435.72C1824.04 1481.41 1877.46 1499.83 1927.19 1499.46M1397.78 1346.2 1432.78 1346.2C1440.15 1346.2 1447.15 1344.73 1453.41 1341.78 1473.3 1333.3 1482.15 1310.83 1469.25 1292.78 1461.15 1281.73 1446.78 1276.2 1432.78 1276.2L1397.78 1276.2 1397.78 1346.2ZM1552.14 1497.99C1487.67 1498.72 1436.46 1457.46 1413.25 1398.88L1397.78 1398.88 1397.78 1495.04 1317.83 1495.04 1317.83 1220.57 1442.72 1220.57C1481.78 1220.57 1519.72 1232.73 1541.09 1263.67 1555.83 1285.04 1559.51 1318.2 1548.46 1342.15 1538.51 1363.51 1517.15 1376.41 1492.09 1385.25 1492.09 1385.25 1503.51 1412.88 1530.04 1423.94 1537.04 1426.88 1545.14 1428.72 1553.62 1429.09L1553.62 1498.36C1552.88 1497.99 1552.51 1497.99 1552.14 1497.99" fill="#393332" transform="matrix(1 0 0 1.08778 1708.41 586.576)"/><path d="M959.36 961.939C967.466 975.571 967.097 991.781 959.729 1004.68 933.203 1045.57 921.413 1094.57 925.834 1143.2L925.834 1143.2C935.045 1279.52 858.782 1422.46 720.626 1502.78 582.469 1583.09 420.365 1578.67 306.524 1503.15L306.524 1503.15C266.735 1475.15 218.103 1461.15 169.472 1463.72L169.472 1463.72C154.736 1463.36 140.367 1455.62 132.262 1441.99 124.157 1428.36 124.525 1412.15 131.894 1399.25 158.42 1358.36 170.209 1309.36 165.788 1260.73L165.788 1260.73C156.578 1124.41 232.84 981.465 370.997 901.15 509.154 820.835 671.258 825.256 785.099 900.782L785.099 900.782C824.888 928.782 873.519 942.781 922.15 939.834 937.255 940.203 951.624 947.939 959.36 961.939" fill="#82BF25" transform="matrix(1 0 0 1.08778 1708.41 586.576)"/></g></g></g><path d="M4073.99 1781.45C4074.94 1874.23 3992.21 1950.14 3889.22 1950.99 3886.94 1951.01 3884.66 1950.99 3882.38 1950.94L3884.45 1882.92C3949.85 1884.34 4004.23 1840.75 4005.91 1785.57 4005.95 1784.39 4005.96 1783.2 4005.94 1782.02Z" fill="#FFFFFF" fill-rule="evenodd"/><rect x="4006" y="1587" width="54" height="312" fill="#FFFFFF"/><path d="M0 0 80.0001 0 142 61.9999 142 124 0 124Z" fill="#FFFFFF" fill-rule="evenodd" transform="matrix(-1 0 0 1 4060 1588)"/><g clip-path="url(#clip18)"><g clip-path="url(#clip19)"><g clip-path="url(#clip20)"><path d="M1587.47 1496 1587.47 1221.21 1781.84 1221.21 1781.84 1282.44 1663.82 1282.44 1663.82 1329.65 1765.98 1329.65 1765.98 1382.4 1663.82 1382.4 1663.82 1434.4 1785.53 1434.4 1785.53 1496 1587.47 1496ZM2334.73 1496 2334.73 1221.21 2254.69 1221.21 2254.69 1318.22C2202.32 1335.92 2160.27 1336.29 2156.95 1336.29L2156.95 1221.21 2076.91 1221.21 2076.91 1496 2156.95 1496 2156.95 1397.89 2159.16 1397.89C2158.06 1398.26 2210.43 1396.04 2254.32 1379.45L2254.32 1496 2334.73 1496ZM1179.17 1496 1179.17 1401.21 1269.53 1401.21 1269.53 1343.3 1179.17 1343.3 1179.17 1289.08 1292.77 1289.08 1292.77 1221.95 1099.13 1221.95 1099.13 1496 1179.17 1496ZM1589.31 1186.18 1589.31 1124.58 1467.6 1124.58 1467.6 1072.57 1569.76 1072.57 1569.76 1019.83 1467.6 1019.83 1467.6 972.62 1590.79 972.62 1590.79 911.393 1391.25 911.393 1391.25 1186.18 1589.31 1186.18ZM2027.86 1185.81 2027.86 1118.68 1918.68 1118.68 1918.68 911.024 1838.65 911.024 1838.65 1185.81 2027.86 1185.81ZM1810.61 1185.81 1810.61 1118.68 1701.44 1118.68 1701.44 911.024 1621.4 911.024 1621.4 1185.81 1810.61 1185.81ZM2188.67 971.513C2232.56 971.144 2262.81 1005.08 2262.07 1048.6 2262.07 1064.09 2258.75 1077.74 2252.48 1089.17 2227.77 1137.49 2149.21 1137.49 2124.86 1089.17 2118.59 1077.74 2115.64 1063.72 2115.64 1048.6 2114.9 1005.08 2144.78 971.144 2188.67 971.513M2188.67 1193.18C2273.13 1194.29 2341.74 1136.01 2339.89 1048.6 2339.89 1019.83 2333.25 994.012 2320.34 972.62 2267.23 881.517 2109.74 881.148 2056.63 972.62 2044.09 994.381 2037.45 1019.83 2037.45 1048.6 2036.34 1136.01 2104.21 1194.29 2188.67 1193.18M1356.95 1185.81 1356.95 911.024 1276.91 911.024 1276.91 1008.03C1224.53 1025.73 1182.49 1026.1 1179.17 1026.1L1179.17 911.024 1099.13 911.024 1099.13 1185.81 1179.17 1185.81 1179.17 1087.33 1181.38 1087.33C1180.27 1087.7 1232.65 1085.48 1276.54 1068.89L1276.54 1185.44 1356.95 1185.44ZM1929.38 1501.16C1986.55 1502.27 2051.09 1473.5 2052.94 1411.17 2053.68 1390.14 2048.88 1373.54 2038.92 1361.74 2028.6 1349.94 2016.06 1341.46 2001.67 1336.66 1982.49 1329.28 1935.65 1321.91 1914.99 1316.74 1908.36 1314.9 1902.45 1312.32 1898.03 1308.63 1888.81 1301.99 1888.44 1286.87 1896.18 1278.75 1903.93 1270.27 1917.21 1268.06 1929.38 1268.43 1950.77 1269.16 1969.21 1279.86 1973.64 1300.88L2031.18 1270.27C2021.22 1248.51 2003.52 1233.39 1981.02 1223.43 1933.44 1203.51 1861.14 1207.57 1829.06 1251.83 1809.51 1276.17 1806.93 1325.96 1827.21 1348.46 1837.54 1360.27 1849.71 1368.75 1863.73 1373.54 1882.17 1381.29 1929.38 1388.67 1950.77 1394.57 1963.31 1398.62 1976.96 1404.89 1976.22 1419.65 1974.75 1441.04 1946.71 1446.57 1927.9 1445.47 1907.62 1444.73 1888.81 1438.46 1877 1423.34 1872.58 1417.8 1869.63 1411.17 1868.15 1404.16L1805.45 1437.35C1826.11 1483.09 1879.59 1501.53 1929.38 1501.16M1399.36 1347.73 1434.4 1347.73C1441.78 1347.73 1448.79 1346.25 1455.06 1343.3 1474.97 1334.82 1483.83 1312.32 1470.92 1294.24 1462.8 1283.18 1448.42 1277.65 1434.4 1277.65L1399.36 1277.65 1399.36 1347.73ZM1553.9 1499.69C1489.36 1500.42 1438.09 1459.11 1414.85 1400.47L1399.36 1400.47 1399.36 1496.73 1319.33 1496.73 1319.33 1221.95 1444.36 1221.95C1483.46 1221.95 1521.45 1234.12 1542.84 1265.11 1557.59 1286.5 1561.28 1319.69 1550.22 1343.67 1540.26 1365.06 1518.86 1377.97 1493.78 1386.82 1493.78 1386.82 1505.22 1414.48 1531.77 1425.55 1538.78 1428.5 1546.9 1430.34 1555.38 1430.71L1555.38 1500.05C1554.64 1499.69 1554.27 1499.69 1553.9 1499.69" fill="#393332" transform="matrix(1 0 0 1.08338 2636.57 592.401)"/><path d="M960.448 963.03C968.562 976.677 968.193 992.906 960.817 1005.81 934.261 1046.76 922.458 1095.81 926.884 1144.5L926.884 1144.5C936.105 1280.97 859.756 1424.07 721.443 1504.48 583.129 1584.89 420.841 1580.46 306.871 1504.85L306.871 1504.85C267.037 1476.82 218.351 1462.8 169.664 1465.38L169.664 1465.38C154.911 1465.02 140.526 1457.27 132.412 1443.62 124.298 1429.98 124.666 1413.75 132.043 1400.84 158.599 1359.9 170.402 1310.84 165.976 1262.16L165.976 1262.16C156.755 1125.69 233.104 982.578 371.417 902.172 509.731 821.766 672.018 826.192 785.989 901.803L785.989 901.803C825.823 929.835 874.509 943.85 923.196 940.9 938.318 941.268 952.702 949.014 960.448 963.03" fill="#82BF25" transform="matrix(1 0 0 1.08338 2636.57 592.401)"/></g></g></g><path d="M2764.17 1883.5 2487.83 1883.5C2451.2 1883.5 2421.5 1853.8 2421.5 1817.17L2421.5 1485.5 2830.5 1485.5 2830.5 1817.17C2830.5 1853.8 2800.8 1883.5 2764.17 1883.5Z" stroke="#172C51" stroke-width="4.58333" stroke-miterlimit="8" fill="#82BF25" fill-rule="evenodd"/><path d="M2456.67 1227.5 2795.33 1227.5C2814.75 1227.5 2830.5 1243.25 2830.5 1262.67L2830.5 1438.5 2421.5 1438.5 2421.5 1262.67C2421.5 1243.25 2437.24 1227.5 2456.67 1227.5Z" stroke="#172C51" stroke-width="4.58333" stroke-miterlimit="8" fill="#82BF25" fill-rule="evenodd"/><g clip-path="url(#clip21)"><g clip-path="url(#clip22)"><g><path d="M89.5896 237.325 89.5896 577.383C89.5896 599.372 108.904 617.171 132.69 617.171L485.369 617.171C509.155 617.171 528.469 599.372 528.469 577.383L528.469 237.325 89.5896 237.325ZM499.17 553.819C499.17 572.381 482.472 587.426 461.903 587.426L156.707 587.426C136.108 587.426 119.401 572.371 119.401 553.819L119.401 266.567 499.17 266.567 499.17 553.819Z" fill="#008847" transform="matrix(1 0 0 1.08889 2315.76 1220)"/><path d="M485.369 0.88846 132.69 0.88846C108.894 0.88846 89.5896 21.5838 89.5896 47.1077L89.5896 207.388 528.469 207.388 528.469 47.098C528.469 21.5741 509.155 0.88846 485.369 0.88846ZM499.797 176.456 118.281 176.456 118.281 63.4476C118.281 45.4466 135.065 30.8547 155.751 30.8547L462.318 30.8547C483.013 30.8547 499.797 45.4466 499.797 63.4476L499.797 176.456Z" fill="#008847" transform="matrix(1 0 0 1.08889 2315.76 1220)"/><path d="M192.255 135.22C192.255 142.685 185.563 148.72 177.296 148.72L177.296 148.72C169.049 148.72 162.347 142.685 162.347 135.22L162.347 74.6403C162.347 67.1849 169.039 61.1492 177.296 61.1492L177.296 61.1492C185.563 61.1492 192.255 67.1849 192.255 74.6403L192.255 135.22Z" fill="#008847" transform="matrix(1 0 0 1.08889 2315.76 1220)"/><path d="M192.255 409.165C192.255 419.034 185.563 427.059 177.296 427.059L177.296 427.059C169.049 427.059 162.347 419.044 162.347 409.165L162.347 328.962C162.347 319.102 169.039 311.086 177.296 311.086L177.296 311.086C185.563 311.086 192.255 319.092 192.255 328.962L192.255 409.165Z" fill="#008847" transform="matrix(1 0 0 1.08889 2315.76 1220)"/></g></g></g><rect x="3482" y="1878" width="181" height="55" fill="#FFFFFF"/><rect x="3496" y="1544" width="181" height="34.9998" fill="#FFFFFF"/></g></svg>